<svg width="117" height="100" viewBox="0 0 117 100" fill="none" xmlns="http://www.w3.org/2000/svg">
<path d="M74.2104 51.7634C73.8691 51.7634 73.414 51.6496 73.0727 51.4221C72.3902 50.8533 72.2764 49.7156 72.8452 49.033L110.502 3.52674H5.38219L43.0386 49.033C43.6074 49.7156 43.4937 50.8533 42.8111 51.4221C42.1285 51.9909 40.9908 51.8771 40.422 51.1945L0.490267 2.84414C0.0352047 2.38908 0.0352049 1.59271 0.262736 1.02388C0.490268 0.455056 1.17286 0 1.85546 0H114.37C115.052 0 115.621 0.34129 115.962 1.02388C116.19 1.59271 116.19 2.27531 115.735 2.84414L75.6894 51.0808C75.2343 51.5358 74.7792 51.7634 74.2104 51.7634Z" fill="#55E6A5"/>
<path d="M58.0566 71.3299C57.6016 71.3299 57.0327 71.1024 56.6914 70.7611L44.5185 56.0853C43.9497 55.4027 44.0634 54.2651 44.746 53.6962C45.4286 53.1274 46.5663 53.2412 47.1351 53.9238L57.9428 67.0068L68.5231 54.2651C69.0919 53.5825 70.2295 53.4687 70.9121 54.0375C71.5947 54.6064 71.7085 55.744 71.1397 56.4266L59.308 70.7611C58.9667 71.1024 58.5117 71.3299 58.0566 71.3299Z" fill="#55E6A5"/>
<path d="M114.256 99.9957H1.74217C1.05958 99.9957 0.490752 99.6544 0.149455 98.9719C-0.0780763 98.403 -0.0780765 97.7204 0.376986 97.1516L56.691 29.3473C57.3736 28.5509 58.625 28.5509 59.3076 29.3473L115.508 97.2654C115.963 97.7204 115.963 98.5168 115.735 99.0856C115.508 99.6544 114.939 99.9957 114.256 99.9957ZM5.38267 96.5827H110.616L58.0562 33.1015L5.38267 96.5827Z" fill="#55E6A5"/>
<path d="M58.0561 26.7355C57.146 26.7355 56.3496 25.9392 56.3496 25.0291V19.9096C56.3496 18.9995 57.146 18.2031 58.0561 18.2031C58.9662 18.2031 59.7626 18.9995 59.7626 19.9096V25.0291C59.7626 25.9392 58.9662 26.7355 58.0561 26.7355Z" fill="#55E6A5"/>
<path d="M58.054 84.4156C55.3237 84.4156 53.1621 82.2541 53.1621 79.6375C53.1621 77.0209 55.3237 74.8594 58.054 74.8594C60.7844 74.8594 62.946 77.0209 62.946 79.6375C62.946 82.3679 60.7844 84.4156 58.054 84.4156ZM58.054 78.3861C57.2577 78.3861 56.5751 78.9549 56.5751 79.7513C56.5751 80.5476 57.2577 81.1165 58.054 81.1165C58.8504 81.1165 59.533 80.5476 59.533 79.7513C59.533 78.9549 58.8504 78.3861 58.054 78.3861Z" fill="#55E6A5"/>
</svg>
