<svg width="75" height="60" viewBox="0 0 75 60" fill="none" xmlns="http://www.w3.org/2000/svg">
<g clip-path="url(#clip0_2773_398)">
<path d="M70.8102 60.0031H4.19006C3.6314 60.0031 3.14258 59.3089 3.14258 58.5155C3.14258 57.7221 3.6314 57.0279 4.19006 57.0279H69.8325L72.6956 4.46591L51.6761 21.8213C51.1873 22.218 50.5588 22.0196 50.2794 21.3254C50.0001 20.6312 50.1398 19.7386 50.6286 19.3419L73.394 0.59814C73.7431 0.30062 74.1621 0.30062 74.5113 0.59814C74.8605 0.895661 75.0001 1.39153 75.0001 1.98657L71.8577 58.7138C71.7878 59.4081 71.3688 60.0031 70.8102 60.0031Z" fill="#55E6A5"/>
<path d="M70.8101 60.0085H4.18994C3.63128 60.0085 3.21229 59.4135 3.14246 58.6201L0 1.89282C0 1.29778 0.139665 0.801911 0.488827 0.50439C0.837989 0.20687 1.25698 0.20687 1.60615 0.50439L45.1117 36.306C45.6006 36.7027 45.8101 37.5953 45.4609 38.2895C45.1816 38.9837 44.5531 39.2812 44.0642 38.7854L2.23464 4.47133L5.09777 57.0333H70.7402C71.2989 57.0333 71.7877 57.7275 71.7877 58.5209C71.8575 59.3143 71.3687 60.0085 70.8101 60.0085Z" fill="#55E6A5"/>
<path d="M50.9078 22.0192C50.6285 22.0192 50.3492 21.9201 50.1397 21.6225L37.5 3.57296L24.7905 21.6225C24.3715 22.2176 23.743 22.2176 23.324 21.6225C22.905 21.0275 22.905 20.1349 23.324 19.5399L36.7318 0.399406C37.1508 -0.195635 37.7793 -0.195635 38.1983 0.399406L51.6061 19.4407C52.0251 20.0358 52.0251 20.9283 51.6061 21.5234C51.3966 21.8209 51.1871 22.0192 50.9078 22.0192Z" fill="#55E6A5"/>
<path d="M51.1865 48.7997C49.0915 48.7997 47.3457 46.3204 47.3457 43.3452C47.3457 40.37 49.0915 37.8906 51.1865 37.8906C53.2815 37.8906 55.0273 40.37 55.0273 43.3452C55.0273 46.3204 53.2815 48.7997 51.1865 48.7997ZM51.1865 40.8658C50.2088 40.8658 49.4407 41.9567 49.4407 43.3452C49.4407 44.7336 50.2088 45.8245 51.1865 45.8245C52.1641 45.8245 52.9323 44.7336 52.9323 43.3452C52.9323 41.9567 52.1641 40.8658 51.1865 40.8658Z" fill="#55E6A5"/>
</g>
<defs>
<clipPath id="clip0_2773_398">
<rect width="75" height="60" fill="white"/>
</clipPath>
</defs>
</svg>
