<svg width="75" height="60" viewBox="0 0 75 60" fill="none" xmlns="http://www.w3.org/2000/svg">
<g clip-path="url(#clip0_2773_413)">
<path d="M29.6018 60.0002C29.3531 60.0002 29.1043 59.8743 28.9178 59.7484L0.248601 30.6613C-0.124534 30.2835 -0.124534 29.7169 0.248601 29.3392L28.9799 0.252066C29.3531 -0.125689 29.9128 -0.125689 30.2859 0.252066L58.9551 29.2762C59.3282 29.654 59.3282 30.2206 58.9551 30.5983L30.2859 59.6854C30.0993 59.8743 29.8506 60.0002 29.6018 60.0002ZM2.23865 29.9687L29.6018 57.6707L56.965 29.9687L29.6018 2.26676L2.23865 29.9687Z" fill="#55E6A5"/>
<path d="M51.8646 53.4512C51.6159 53.4512 51.3671 53.3252 51.1806 53.1993L43.7179 45.6442C43.3447 45.2665 43.3447 44.6998 43.7179 44.3221C44.091 43.9443 44.6507 43.9443 45.0238 44.3221L51.8025 51.1846L72.7602 29.9674L51.8646 8.81317L30.285 30.66C29.9119 31.0377 29.3522 31.0377 28.9791 30.66C28.6059 30.2822 28.6059 29.7156 28.9791 29.3378L51.1806 6.86144C51.5537 6.48369 52.1134 6.48369 52.4865 6.86144L74.688 29.3378C75.0612 29.7156 75.0612 30.2822 74.688 30.66L52.4865 53.1364C52.3 53.3252 52.1134 53.4512 51.8646 53.4512Z" fill="#55E6A5"/>
<path d="M26.1812 35.9499C24.8753 35.9499 23.7559 34.8796 23.7559 33.4945C23.7559 32.1723 24.8131 31.0391 26.1812 31.0391C27.4872 31.0391 28.6066 32.1094 28.6066 33.4945C28.6066 34.8166 27.4872 35.9499 26.1812 35.9499ZM26.1812 32.9278C25.8703 32.9278 25.6215 33.1797 25.6215 33.4945C25.6215 33.8093 25.8703 34.0611 26.1812 34.0611C26.4922 34.0611 26.7409 33.8093 26.7409 33.4945C26.7409 33.1797 26.4922 32.9278 26.1812 32.9278Z" fill="#55E6A5"/>
</g>
<defs>
<clipPath id="clip0_2773_413">
<rect width="75" height="60" fill="white"/>
</clipPath>
</defs>
</svg>
