<svg width="62" height="49" viewBox="0 0 62 49" fill="none" xmlns="http://www.w3.org/2000/svg">
<path d="M58.1875 12.25C57.3753 12.25 56.5963 12.5727 56.022 13.147C55.4477 13.7213 55.125 14.5003 55.125 15.3125V39.8125C55.125 40.6247 54.8023 41.4037 54.228 41.978C53.6537 42.5523 52.8747 42.875 52.0625 42.875H9.1875C8.37527 42.875 7.59632 42.5523 7.02199 41.978C6.44766 41.4037 6.125 40.6247 6.125 39.8125V10.4431L24.1325 28.4506C25.8552 30.1711 28.1903 31.1375 30.625 31.1375C33.0597 31.1375 35.3948 30.1711 37.1175 28.4506L48.1119 17.4869C48.6886 16.9102 49.0125 16.128 49.0125 15.3125C49.0125 14.497 48.6886 13.7148 48.1119 13.1381C47.5352 12.5614 46.753 12.2375 45.9375 12.2375C45.122 12.2375 44.3398 12.5614 43.7631 13.1381L32.7994 24.1325C32.5147 24.4195 32.176 24.6474 31.8028 24.8029C31.4296 24.9583 31.0293 25.0384 30.625 25.0384C30.2207 25.0384 29.8204 24.9583 29.4472 24.8029C29.074 24.6474 28.7353 24.4195 28.4506 24.1325L10.4431 6.125H33.6875C34.4997 6.125 35.2787 5.80234 35.853 5.22801C36.4273 4.65368 36.75 3.87473 36.75 3.0625C36.75 2.25027 36.4273 1.47132 35.853 0.896986C35.2787 0.322656 34.4997 0 33.6875 0H9.1875C6.75082 0 4.41395 0.967966 2.69096 2.69096C0.967966 4.41395 0 6.75082 0 9.1875V39.8125C0 42.2492 0.967966 44.5861 2.69096 46.309C4.41395 48.032 6.75082 49 9.1875 49H52.0625C54.4992 49 56.8361 48.032 58.559 46.309C60.282 44.5861 61.25 42.2492 61.25 39.8125V15.3125C61.25 14.5003 60.9273 13.7213 60.353 13.147C59.7787 12.5727 58.9997 12.25 58.1875 12.25ZM45.9375 6.125H58.1875C58.9997 6.125 59.7787 5.80234 60.353 5.22801C60.9273 4.65368 61.25 3.87473 61.25 3.0625C61.25 2.25027 60.9273 1.47132 60.353 0.896986C59.7787 0.322656 58.9997 0 58.1875 0H45.9375C45.1253 0 44.3463 0.322656 43.772 0.896986C43.1977 1.47132 42.875 2.25027 42.875 3.0625C42.875 3.87473 43.1977 4.65368 43.772 5.22801C44.3463 5.80234 45.1253 6.125 45.9375 6.125Z" fill="#02050A"/>
</svg>
