<svg width="127" height="100" viewBox="0 0 127 100" fill="none" xmlns="http://www.w3.org/2000/svg">
<path d="M63.7291 99.9969C63.2929 99.9969 62.8568 99.7789 62.5296 99.4517L0.484306 33.699C-0.0609081 33.1537 -0.0609081 32.3904 0.26622 31.7362L16.2955 3.82122C16.6226 3.27601 17.1679 2.94888 17.7131 2.94888H26.2184C27.0907 2.94888 27.854 3.71218 27.854 4.58452C27.854 5.45686 27.0907 6.22016 26.2184 6.22016H18.6945L3.75559 32.2814L63.7291 95.9624L123.266 32.2814L106.583 6.11113H42.6839C41.8115 6.11113 41.0482 5.34783 41.0482 4.47549C41.0482 3.60314 41.8115 2.83984 42.6839 2.83984H107.346C107.891 2.83984 108.437 3.16697 108.764 3.60314L126.647 31.5181C127.083 32.1724 126.974 32.9356 126.429 33.4809L64.9286 99.3427C64.6015 99.8879 64.1653 99.9969 63.7291 99.9969Z" fill="#55E6A5"/>
<path d="M1.68373 34.2451C0.920431 34.2451 0.266175 33.6999 0.0480891 32.9366C-0.169996 32.0642 0.375217 31.1919 1.24756 30.9738L75.5057 14.2903C76.378 14.0722 77.2504 14.6174 77.4685 15.4897C77.6865 16.3621 77.1413 17.2344 76.269 17.4525L2.01086 34.1361C1.90182 34.1361 1.79277 34.2451 1.68373 34.2451Z" fill="#55E6A5"/>
<path d="M125.227 34.2405C125.009 34.2405 124.9 34.2405 124.682 34.1314L42.1369 6.21648C41.2645 5.88936 40.8284 5.01702 41.1555 4.14468C41.4826 3.27234 42.355 2.83617 43.2273 3.1633L125.773 31.0782C126.645 31.4054 127.081 32.2777 126.754 33.1501C126.645 33.8043 125.991 34.2405 125.227 34.2405Z" fill="#55E6A5"/>
<path d="M34.3962 9.1596C31.8882 9.1596 29.8164 7.08778 29.8164 4.57979C29.8164 2.07181 31.8882 0 34.3962 0C36.9042 0 38.976 2.07181 38.976 4.57979C38.976 7.08778 36.9042 9.1596 34.3962 9.1596ZM34.3962 3.27128C33.6329 3.27128 33.0877 3.81649 33.0877 4.57979C33.0877 5.34309 33.6329 5.88832 34.3962 5.88832C35.1595 5.88832 35.7047 5.34309 35.7047 4.57979C35.7047 3.92554 35.1595 3.27128 34.3962 3.27128Z" fill="#55E6A5"/>
</svg>
