<svg width="55" height="60" viewBox="0 0 55 60" fill="none" xmlns="http://www.w3.org/2000/svg">
<path d="M24.0012 29.6985V44.9992C24.0012 45.7949 24.3173 46.558 24.88 47.1207C25.4426 47.6833 26.2057 47.9994 27.0014 47.9994C27.7971 47.9994 28.5602 47.6833 29.1228 47.1207C29.6854 46.558 30.0015 45.7949 30.0015 44.9992V29.6985C33.6438 28.955 36.8804 26.8855 39.0836 23.8914C41.2868 20.8972 42.2998 17.1917 41.9262 13.4931C41.5525 9.79446 39.8189 6.36634 37.0614 3.87333C34.3038 1.38031 30.7188 0 27.0014 0C23.284 0 19.699 1.38031 16.9414 3.87333C14.1839 6.36634 12.4502 9.79446 12.0766 13.4931C11.7029 17.1917 12.7159 20.8972 14.9192 23.8914C17.1224 26.8855 20.3589 28.955 24.0012 29.6985ZM27.0014 5.99724C28.7815 5.99724 30.5217 6.52511 32.0018 7.5141C33.4819 8.50308 34.6355 9.90876 35.3167 11.5534C35.9979 13.198 36.1762 15.0077 35.8289 16.7536C35.4816 18.4995 34.6244 20.1033 33.3657 21.362C32.1069 22.6207 30.5032 23.4779 28.7573 23.8252C27.0114 24.1725 25.2017 23.9943 23.5571 23.313C21.9124 22.6318 20.5068 21.4782 19.5178 19.9981C18.5288 18.518 18.0009 16.7778 18.0009 14.9977C18.0009 12.6106 18.9492 10.3213 20.6371 8.63342C22.325 6.94551 24.6143 5.99724 27.0014 5.99724ZM39.632 37.2588C39.238 37.1761 38.8316 37.1718 38.436 37.2461C38.0403 37.3204 37.6632 37.472 37.3261 37.6921C36.989 37.9122 36.6985 38.1965 36.4713 38.5288C36.2441 38.8611 36.0846 39.235 36.0018 39.629C35.9191 40.0229 35.9148 40.4294 35.9891 40.825C36.0634 41.2207 36.215 41.5978 36.4351 41.9349C36.6552 42.272 36.9395 42.5625 37.2718 42.7897C37.6041 43.0169 37.978 43.1764 38.372 43.2591C45.1823 44.6092 48.0025 47.0393 48.0025 47.9994C48.0025 49.7395 40.6521 53.9997 27.0014 53.9997C13.3507 53.9997 6.00031 49.7395 6.00031 47.9994C6.00031 47.0393 8.82045 44.6092 15.6308 43.1391C16.0248 43.0564 16.3986 42.8969 16.7309 42.6697C17.0633 42.4425 17.3476 42.152 17.5677 41.8149C17.7878 41.4778 17.9393 41.1007 18.0136 40.705C18.088 40.3094 18.0837 39.9029 18.0009 39.509C17.9182 39.115 17.7587 38.7411 17.5314 38.4088C17.3042 38.0765 17.0138 37.7921 16.6767 37.5721C16.3396 37.352 15.9625 37.2004 15.5668 37.1261C15.1711 37.0518 14.7647 37.0561 14.3707 37.1388C5.25027 39.2389 0 43.1691 0 47.9994C0 55.8898 13.5907 60 27.0014 60C40.4121 60 54.0028 55.8898 54.0028 47.9994C54.0028 43.1691 48.7525 39.2389 39.632 37.2588Z" fill="#02050A"/>
</svg>
