<svg width="61" height="60" viewBox="0 0 61 60" fill="none" xmlns="http://www.w3.org/2000/svg">
<path d="M52.4134 33.1202C51.7509 33.1202 51.0584 32.9094 50.396 32.7589C49.0557 32.4591 47.7378 32.0668 46.4517 31.5846C45.0549 31.0764 43.5195 31.1028 42.141 31.6587C40.7625 32.2145 39.6383 33.2606 38.9846 34.5955L38.3222 35.9805C35.3981 34.3221 32.6967 32.2986 30.2831 29.9587C27.9431 27.5451 25.9196 24.8437 24.2612 21.9195L25.6462 21.2872C26.9812 20.6336 28.0272 19.5094 28.5831 18.1309C29.1389 16.7523 29.1653 15.2169 28.6572 13.8201C28.179 12.5225 27.7867 11.1949 27.4829 9.84572C27.3324 9.18332 27.2119 8.49081 27.1216 7.8284C26.756 5.70757 25.6451 3.78697 23.9891 2.41247C22.3331 1.03798 20.2407 0.299914 18.0888 0.331201H9.02594C7.75306 0.329534 6.4942 0.59691 5.33189 1.1158C4.16958 1.63469 3.13005 2.39338 2.28147 3.34213C1.41529 4.31662 0.770332 5.46709 0.39092 6.71447C0.0115073 7.96185 -0.0933695 9.27659 0.0834945 10.5683C1.72019 23.1002 7.44584 34.742 16.3726 43.6885C25.3191 52.6153 36.9609 58.3409 49.4928 59.9776C49.8836 60.0075 50.2762 60.0075 50.667 59.9776C52.8873 59.9809 55.031 59.1662 56.6889 57.6893C57.6376 56.8407 58.3963 55.8012 58.9152 54.6389C59.4341 53.4766 59.7015 52.2177 59.6998 50.9448V41.9121C59.6836 39.8316 58.9496 37.8206 57.6221 36.2187C56.2945 34.6168 54.4546 33.5223 52.4134 33.1202ZM53.8887 51.1857C53.8877 51.6059 53.7988 52.0212 53.6277 52.4049C53.4566 52.7886 53.207 53.1323 52.8951 53.4138C52.5651 53.7144 52.1724 53.938 51.7454 54.0681C51.3184 54.1983 50.8677 54.2319 50.4261 54.1665C39.1902 52.6991 28.7482 47.5786 20.7083 39.5937C12.6615 31.5469 7.49648 21.0685 6.01502 9.7855C5.94961 9.3439 5.98321 8.89329 6.1134 8.46627C6.24358 8.03926 6.46709 7.64654 6.76775 7.31655C7.05264 7.00085 7.40118 6.74909 7.7904 6.57783C8.17963 6.40657 8.60071 6.3197 9.02594 6.32294H18.0587C18.7547 6.30593 19.4351 6.53065 19.9841 6.95885C20.5331 7.38704 20.9167 7.99225 21.0696 8.67146C21.0696 9.48441 21.3406 10.3275 21.5213 11.1404C21.8693 12.7177 22.3322 14.2675 22.9063 15.7772L18.691 17.7645C17.9665 18.097 17.4034 18.7034 17.1253 19.4506C16.8242 20.1836 16.8242 21.0058 17.1253 21.7389C21.4586 31.0208 28.9198 38.482 38.2018 42.8153C38.9348 43.1165 39.757 43.1165 40.4901 42.8153C41.2372 42.5373 41.8436 41.9742 42.1762 41.2497L44.0731 37.0344C45.6265 37.6008 47.2157 38.0635 48.8304 38.4194C49.6132 38.6 50.4563 38.7506 51.2692 38.871C51.9484 39.024 52.5536 39.4076 52.9818 39.9566C53.41 40.5055 53.6347 41.1859 53.6177 41.882L53.8887 51.1857ZM36.1243 0C35.4317 0 34.7091 0 34.0166 0C33.2181 0.0678765 32.4792 0.450194 31.9625 1.06285C31.4459 1.6755 31.1937 2.46831 31.2616 3.26685C31.3295 4.0654 31.7118 4.80428 32.3245 5.32094C32.9371 5.8376 33.7299 6.08972 34.5285 6.02185H36.1243C40.9155 6.02185 45.5106 7.92518 48.8985 11.3131C52.2865 14.7011 54.1898 19.2961 54.1898 24.0874C54.1898 24.6294 54.1898 25.1412 54.1898 25.6832C54.123 26.4775 54.374 27.2659 54.8876 27.8754C55.4012 28.485 56.1356 28.866 56.9297 28.935H57.1706C57.9244 28.938 58.6518 28.6583 59.2093 28.151C59.7668 27.6437 60.1137 26.9457 60.1815 26.195C60.1815 25.5025 60.1815 24.7799 60.1815 24.0874C60.1815 17.7042 57.6479 11.5821 53.1372 7.06567C48.6264 2.54927 42.5074 0.00797895 36.1243 0ZM42.1461 24.0874C42.1461 24.8859 42.4633 25.6518 43.028 26.2164C43.5926 26.7811 44.3585 27.0983 45.157 27.0983C45.9556 27.0983 46.7214 26.7811 47.2861 26.2164C47.8507 25.6518 48.168 24.8859 48.168 24.0874C48.168 20.8932 46.8991 17.8298 44.6404 15.5712C42.3818 13.3126 39.3184 12.0437 36.1243 12.0437C35.3257 12.0437 34.5599 12.3609 33.9952 12.9256C33.4306 13.4902 33.1133 14.2561 33.1133 15.0546C33.1133 15.8532 33.4306 16.619 33.9952 17.1837C34.5599 17.7483 35.3257 18.0655 36.1243 18.0655C37.7213 18.0655 39.253 18.7 40.3823 19.8293C41.5117 20.9586 42.1461 22.4903 42.1461 24.0874Z" fill="#02050A"/>
</svg>
