<svg width="99" height="101" viewBox="0 0 99 101" fill="none" xmlns="http://www.w3.org/2000/svg">
<path d="M76.0618 100.003H1.44788C0.675676 100.003 0 99.3278 0 98.5556V23.7487C0 22.9765 0.675676 22.3008 1.44788 22.3008H76.0618C76.834 22.3008 77.5097 22.9765 77.5097 23.7487V98.4591C77.5097 99.3278 76.834 100.003 76.0618 100.003ZM2.89575 97.1077H74.6139V25.1965H2.89575V97.1077Z" fill="#55E6A5"/>
<path d="M97.0071 77.6062H22.3932C21.621 77.6062 20.9453 76.9305 20.9453 76.1583V50.4826C20.9453 49.7104 21.621 49.0347 22.3932 49.0347H41.4086C42.1808 49.0347 42.8565 49.7104 42.8565 50.4826C42.8565 51.2548 42.1808 51.9305 41.4086 51.9305H23.8411V74.7104H95.5592V2.89575H23.8411V23.7452C23.8411 24.5174 23.1654 25.1931 22.3932 25.1931C21.621 25.1931 20.9453 24.5174 20.9453 23.7452V1.44788C20.9453 0.675676 21.621 0 22.3932 0H97.0071C97.7793 0 98.455 0.675676 98.455 1.44788V76.1583C98.455 77.027 97.7793 77.6062 97.0071 77.6062Z" fill="#55E6A5"/>
<path d="M50.3866 54.8279C47.9735 54.8279 46.043 52.8974 46.043 50.4843C46.043 48.0711 47.9735 46.1406 50.3866 46.1406C52.7997 46.1406 54.7302 48.0711 54.7302 50.4843C54.7302 52.8974 52.7997 54.8279 50.3866 54.8279ZM50.3866 49.0364C49.6144 49.0364 48.9387 49.7121 48.9387 50.4843C48.9387 51.2565 49.6144 51.9321 50.3866 51.9321C51.1588 51.9321 51.8345 51.2565 51.8345 50.4843C51.8345 49.7121 51.1588 49.0364 50.3866 49.0364Z" fill="#55E6A5"/>
</svg>
